<svg id="Layer_1" data-name="Layer 1" xmlns="http://www.w3.org/2000/svg" xmlns:xlink="http://www.w3.org/1999/xlink" viewBox="0 0 1357 377"><defs><style>.cls-1{fill:#f17105;}.cls-2{fill:url(#linear-gradient);}.cls-3{fill:url(#linear-gradient-2);}</style><linearGradient id="linear-gradient" x1="848.85" y1="211.84" x2="1065.19" y2="211.84" gradientUnits="userSpaceOnUse"><stop offset="0" stop-color="#f5bc00"/><stop offset="1" stop-color="#f17105"/></linearGradient><linearGradient id="linear-gradient-2" x1="879.14" y1="240.12" x2="960.33" y2="240.12" xlink:href="#linear-gradient"/></defs><path class="cls-1" d="M181.18,321.11q-39,0-68-15.7a111.58,111.58,0,0,1-45.1-44.2Q52,232.71,52,194.81q0-39,16.78-68.92A123.2,123.2,0,0,1,115,78.8q29.4-17.14,67.66-17.14,42.57,0,66.75,16.6l-9.74,57.37a93.67,93.67,0,0,0-21.83-7.39,106.05,106.05,0,0,0-21.47-2.35q-29.59,0-46.55,17.68t-17,49.08q0,29.6,16.42,46.37t45.64,16.77A95.86,95.86,0,0,0,216,253.63a154.35,154.35,0,0,0,23.64-7.94l10.1,57A133.12,133.12,0,0,1,181.18,321.11Z"/><path class="cls-1" d="M352.27,318.22q-30.67,0-54.13-11.91t-36.62-33q-13.19-21.1-13.18-48.53,0-28.14,13.54-48.89t37-32.3Q322.32,132,352.63,132q31,0,54.49,11.73t36.44,32.48q13,20.75,13,48.53t-13.17,48.9q-13.17,21.1-36.62,32.83T352.27,318.22Zm.72-54.13a30.84,30.84,0,0,0,24.36-11q9.56-11,9.56-28.33t-9.38-28.33a30,30,0,0,0-23.82-11q-15.51,0-25.08,11t-9.56,28.33q0,17.33,9.56,28.33A30.81,30.81,0,0,0,353,264.09Z"/><path class="cls-1" d="M528,318.22A170.27,170.27,0,0,1,495.12,315a145.54,145.54,0,0,1-29.95-9l10.46-45.47q8.3,4.33,22.74,7.4A124.45,124.45,0,0,0,524,271q18,0,18-9.74,0-4.69-5.59-6.86A82.44,82.44,0,0,0,522,250.56q-8.85-1.62-18.94-4.33a67.75,67.75,0,0,1-18.95-8.3,41.71,41.71,0,0,1-14.43-16.06q-5.6-10.45-5.59-27.42,0-28.5,22.55-45.47t61.88-17a174,174,0,0,1,28.33,2.17,73.92,73.92,0,0,1,25.08,9l-7.58,44a103.49,103.49,0,0,0-40.05-7.93q-13.37,0-19.31,2.16t-6,7.22q0,4,5.77,6.13a108.27,108.27,0,0,0,15,4.15,178.5,178.5,0,0,1,19.3,5.41,82.92,82.92,0,0,1,19.31,9.57,47.05,47.05,0,0,1,15,16.41q5.77,10.29,5.78,26.53,0,28.88-21.29,45.1T528,318.22Z"/><path class="cls-1" d="M756.73,318.22q-21.65,0-36.08-9.38t-23.1-27.07v33.56H621.77V77.53l76.5-11.18V171.72q8.67-20.57,24.72-30.13A64.9,64.9,0,0,1,756.73,132Q782,132,802,143.75a86.21,86.21,0,0,1,31.75,32.3q11.73,20.56,11.73,48t-11.73,48.71A87.33,87.33,0,0,1,802,306.13Q782,318.24,756.73,318.22Zm-23.45-57q15.51,0,26-10.47a36.61,36.61,0,0,0,0-51.24Q748.79,189,733.28,189A35.39,35.39,0,0,0,708,199q-10.47,9.93-10.47,25.44T708,250.56A34.1,34.1,0,0,0,733.28,261.21Z"/><path class="cls-1" d="M1241.75,114.7a41.3,41.3,0,0,1-28.51-10.64q-11.91-10.64-11.91-26.16a31.85,31.85,0,0,1,5.78-19,40.33,40.33,0,0,1,15.15-12.81,43.17,43.17,0,0,1,19.49-4.69,42.06,42.06,0,0,1,35.18,18.4,32.82,32.82,0,0,1-.36,37.17,41.49,41.49,0,0,1-15.16,13A42.64,42.64,0,0,1,1241.75,114.7Zm29.59,203.52q-24.18,0-39.15-8.66a51.94,51.94,0,0,1-21.84-23.45q-6.86-14.81-6.85-33.2V134.55h76.14V242.44q0,8.31,4.87,12.81a16.63,16.63,0,0,0,11.73,4.51,29.69,29.69,0,0,0,14.79-4.33l4,50.16q-7.93,6.14-20.57,9.38A93.17,93.17,0,0,1,1271.34,318.22Z"/><path class="cls-1" d="M1118.83,114.7a41.3,41.3,0,0,1-28.51-10.64q-11.91-10.64-11.91-26.16a31.85,31.85,0,0,1,5.78-19,40.33,40.33,0,0,1,15.15-12.81,43.17,43.17,0,0,1,19.49-4.69A42.06,42.06,0,0,1,1154,59.85a32.82,32.82,0,0,1-.36,37.17,41.49,41.49,0,0,1-15.16,13A42.64,42.64,0,0,1,1118.83,114.7Zm29.59,203.52q-24.18,0-39.15-8.66a51.94,51.94,0,0,1-21.84-23.45q-6.86-14.81-6.85-33.2V134.55h76.14V242.44q0,8.31,4.87,12.81a16.63,16.63,0,0,0,11.73,4.51,29.69,29.69,0,0,0,14.79-4.33l4,50.16q-7.93,6.14-20.57,9.38A93.17,93.17,0,0,1,1148.42,318.22Z"/><path class="cls-2" d="M1033.93,320.9H960.12C1090,141.19,924.55,121.1,855.78,196.2c-2.68-16.53-4.1-39.2-6.93-53.37,60.92-39.68,126.54-43.34,162.17-38.25,5.14.73,15.27,2.54,25.45,5.09,3.22.8-28,5.09-18.63,13.34C1068.06,152.84,1085.77,223.77,1033.93,320.9Z"/><path class="cls-3" d="M954.74,216.08a49.05,49.05,0,0,0-14.8-17.63,34,34,0,0,0-20.38-6.66,34.9,34.9,0,0,0-19.49,6.2,45.76,45.76,0,0,0-15.15,16.9q-5.77,10.71-5.78,25,0,20.49,11.92,34.53t28.5,14a34.49,34.49,0,0,0,19.66-6.19,47.43,47.43,0,0,0,15.16-17.14q5.94-11,6-25.24A51.56,51.56,0,0,0,954.74,216.08Zm-21.59,24.51a17.71,17.71,0,1,1,17.71-17.71A17.71,17.71,0,0,1,933.15,240.59Z"/></svg>