<svg id="Layer_1" data-name="Layer 1" xmlns="http://www.w3.org/2000/svg" xmlns:xlink="http://www.w3.org/1999/xlink" viewBox="0 0 695 634"><defs><style>.cls-1{fill:url(#linear-gradient);}.cls-2{fill:url(#linear-gradient-2);}</style><linearGradient id="linear-gradient" x1="99.13" y1="327.52" x2="596" y2="327.52" gradientUnits="userSpaceOnUse"><stop offset="0" stop-color="#f5bc00"/><stop offset="1" stop-color="#f17105"/></linearGradient><linearGradient id="linear-gradient-2" x1="168.71" y1="392.48" x2="355.17" y2="392.48" xlink:href="#linear-gradient"/></defs><path class="cls-1" d="M524.21,578H354.7C653.06,165.26,273,119.12,115.05,291.59c-6.15-38-9.41-90-15.92-122.57C239.06,77.9,389.77,69.48,471.61,81.17c11.79,1.68,35.07,5.84,58.45,11.69,7.38,1.84-64.3,11.69-42.8,30.65C602.6,192,643.27,354.91,524.21,578Z"/><path class="cls-2" d="M342.35,337.26q-12.89-25.14-34-40.48a78,78,0,0,0-46.79-15.3q-23.24,0-44.78,14.22T182,334.52q-13.28,24.6-13.27,57.41,0,47.06,27.36,79.3t65.48,32.25q24,0,45.13-14.22t34.82-39.38q13.67-25.14,13.67-57.95A118.51,118.51,0,0,0,342.35,337.26Zm-49.6,56.29a40.68,40.68,0,1,1,40.68-40.67A40.68,40.68,0,0,1,292.75,393.55Z"/></svg>