<svg id="Layer_1" data-name="Layer 1" xmlns="http://www.w3.org/2000/svg" viewBox="0 0 695 634"><defs><style>.cls-1{fill:#fff;}</style></defs><path class="cls-1" d="M553.36,609H355.88c347.6-480.85-95.2-534.61-279.2-333.68-7.17-44.23-11-104.89-18.55-142.8,163-106.15,338.61-116,434-102.35,13.73,2,40.86,6.81,68.09,13.62,8.61,2.15-74.9,13.62-49.86,35.72C644.69,159.31,692.08,349.09,553.36,609Z"/><path class="cls-1" d="M341.49,328.53q-15-29.29-39.62-47.17a90.9,90.9,0,0,0-54.52-17.81q-27.06,0-52.16,16.56t-40.53,45.23Q139.2,354,139.19,392.22q0,54.81,31.88,92.39t76.28,37.57q28,0,52.59-16.57t40.56-45.87q15.93-29.3,15.92-67.52A138.08,138.08,0,0,0,341.49,328.53Zm-57.78,65.58a47.39,47.39,0,1,1,47.39-47.39A47.41,47.41,0,0,1,283.71,394.11Z"/></svg>